<?xml version="1.0" encoding="UTF-8"?>
<svg version="1.1" xmlns="http://www.w3.org/2000/svg" width="432" height="432">
<path d="M0 0 C0.85360107 -0.00974854 1.70720215 -0.01949707 2.58666992 -0.02954102 C21.40098424 -0.20014597 39.48500013 -0.01501218 57.91015625 4.23828125 C58.75433105 4.42551758 59.59850586 4.61275391 60.46826172 4.80566406 C96.28825925 12.90555806 129.67014302 30.26799573 156.65234375 55.16796875 C158.67490879 57.02256991 160.74499609 58.78863286 162.84765625 60.55078125 C180.61522364 76.19473501 193.97341109 96.44087957 204.91015625 117.23828125 C205.28720703 117.94452637 205.66425781 118.65077148 206.05273438 119.37841797 C219.51676721 144.92412669 227.87392076 175.39873304 228.1484375 204.328125 C228.15818604 205.18172607 228.16793457 206.03532715 228.17797852 206.91479492 C228.34858347 225.72910924 228.16344968 243.81312513 223.91015625 262.23828125 C223.72291992 263.08245605 223.53568359 263.92663086 223.34277344 264.79638672 C215.24287944 300.61638425 197.88044177 333.99826802 172.98046875 360.98046875 C171.12586759 363.00303379 169.35980464 365.07312109 167.59765625 367.17578125 C151.95370249 384.94334864 131.70755793 398.30153609 110.91015625 409.23828125 C110.20391113 409.61533203 109.49766602 409.99238281 108.77001953 410.38085938 C83.22431081 423.84489221 52.74970446 432.20204576 23.8203125 432.4765625 C22.96671143 432.48631104 22.11311035 432.49605957 21.23364258 432.50610352 C2.41932826 432.67670847 -15.66468763 432.49157468 -34.08984375 428.23828125 C-34.93401855 428.05104492 -35.77819336 427.86380859 -36.64794922 427.67089844 C-72.46794675 419.57100444 -105.84983052 402.20856677 -132.83203125 377.30859375 C-134.85459629 375.45399259 -136.92468359 373.68792964 -139.02734375 371.92578125 C-156.79491114 356.28182749 -170.15309859 336.03568293 -181.08984375 315.23828125 C-181.46689453 314.53203613 -181.84394531 313.82579102 -182.23242188 313.09814453 C-195.69645471 287.55243581 -204.05360826 257.07782946 -204.328125 228.1484375 C-204.3427478 226.86803589 -204.3427478 226.86803589 -204.35766602 225.56176758 C-204.52827097 206.74745326 -204.34313718 188.66343737 -200.08984375 170.23828125 C-199.90260742 169.39410645 -199.71537109 168.54993164 -199.52246094 167.68017578 C-191.42256694 131.86017825 -174.06012927 98.47829448 -149.16015625 71.49609375 C-147.30555509 69.47352871 -145.53949214 67.40344141 -143.77734375 65.30078125 C-128.13338999 47.53321386 -107.88724543 34.17502641 -87.08984375 23.23828125 C-86.38359863 22.86123047 -85.67735352 22.48417969 -84.94970703 22.09570312 C-59.40399831 8.63167029 -28.92939196 0.27451674 0 0 Z " fill="#000000" transform="translate(204.08984375,-0.23828125)"/>
<path d="M0 0 C0 5.28 0 10.56 0 16 C-1.4025 16.4125 -2.805 16.825 -4.25 17.25 C-8.11752459 18.57150527 -10.62593547 19.53021337 -13 23 C-14.18317749 25.97337648 -15.09465779 28.92183649 -16 32 C-10.72 32 -5.44 32 0 32 C0.495 38.435 0.495 38.435 1 45 C2.010625 43.7625 3.02125 42.525 4.0625 41.25 C9.26197486 35.31672828 15.47699365 31.57676965 23.46875 30.7421875 C32.33156707 30.3687542 39.34501893 32.60581556 46.3125 38.125 C50.46178343 42.02179153 53.13155248 46.6371963 55 52 C55 53.32 55 54.64 55 56 C55.66 56 56.32 56 57 56 C57.04125 55.030625 57.0825 54.06125 57.125 53.0625 C58.126708 46.28381849 62.59610934 40.82941087 67.8125 36.625 C74.09114571 32.31964294 81.33382949 29.78226894 89 31 C98.64325864 33.37546547 105.53606379 37.8785433 110.9375 46.25 C115.41642671 53.8414012 114 57.40394022 114 68 C101.13 68.33 88.26 68.66 75 69 C80.22980852 72.91365431 80.22980852 72.91365431 85.625 73.375 C86.72714844 73.35566406 86.72714844 73.35566406 87.8515625 73.3359375 C90.05880144 73.11225604 90.05880144 73.11225604 92.0234375 71.9140625 C94 71 94 71 95.984375 71.15234375 C98.53887972 72.2266219 100.21050306 73.69296113 102.25 75.5625 C102.95640625 76.20316406 103.6628125 76.84382813 104.390625 77.50390625 C105.18726563 78.24447266 105.18726563 78.24447266 106 79 C104.60802671 82.38256721 103.1974504 83.83688682 100.0625 85.6875 C99.37285156 86.10386719 98.68320312 86.52023438 97.97265625 86.94921875 C91.83044093 90.22101265 83.80014038 89.81532735 77 89 C68.78114664 86.3124238 62.08816482 79.52413214 58 72 C57.35819702 69.59675236 57.15311788 67.50092533 57 65 C56.34 65 55.68 65 55 65 C54.979375 65.94875 54.95875 66.8975 54.9375 67.875 C53.98072889 74.33648157 49.63013291 79.74493886 44.78125 83.90234375 C37.40001373 89.07173696 29.96215663 91.04647937 21 90 C12.30038454 87.89181098 5.29377682 82.94066523 0.328125 75.4921875 C-3.29630451 68.508034 -3.94753437 61.76978179 -3 54 C-2.34 52.02 -1.68 50.04 -1 48 C-5.95 47.67 -10.9 47.34 -16 47 C-16 60.86 -16 74.72 -16 89 C-21.28 89 -26.56 89 -32 89 C-32.09075377 80.95851764 -32.16397463 72.91744054 -32.20724869 64.87558174 C-32.22802924 61.1404921 -32.25616923 57.4057742 -32.30175781 53.67089844 C-32.34556031 50.05930865 -32.36920859 46.448074 -32.37950897 42.83623886 C-32.38683928 41.46565036 -32.40115198 40.09507894 -32.42292023 38.72464371 C-32.60256084 26.93490804 -30.55931661 18.16753906 -22.9921875 8.9765625 C-16.69481112 2.7285773 -8.71184817 0 0 0 Z " fill="#CECCC7" transform="translate(289,168)"/>
<path d="M0 0 C6.63863483 5.15218529 10.95116632 12.38054012 12.31640625 20.6875 C12.66019352 29.59159042 10.19824689 36.93535855 4.68359375 43.91015625 C-0.05681394 48.97890386 -7.34550432 53.14280625 -14.35546875 53.80078125 C-23.2834291 53.97083764 -30.31148926 52.04884197 -37.3359375 46.3984375 C-43.83208756 40.09375292 -47.11693319 32.8027096 -47.56640625 23.78515625 C-47.34829049 15.32996312 -43.92945536 8.46451242 -38.19140625 2.35546875 C-26.88025272 -7.58597479 -12.52992337 -8.01825755 0 0 Z " fill="#C1C2BD" transform="translate(157.19140625,204.40234375)"/>
<path d="M0 0 C6.61788907 4.43062065 11.47454518 10.42363554 14 18 C14 22.95 14 27.9 14 33 C1.13 33.33 -11.74 33.66 -25 34 C-19.77019148 37.91365431 -19.77019148 37.91365431 -14.375 38.375 C-13.64023437 38.36210937 -12.90546875 38.34921875 -12.1484375 38.3359375 C-9.94119856 38.11225604 -9.94119856 38.11225604 -7.9765625 36.9140625 C-6 36 -6 36 -4.015625 36.15234375 C-1.46112028 37.2266219 0.21050306 38.69296113 2.25 40.5625 C3.30960937 41.52349609 3.30960937 41.52349609 4.390625 42.50390625 C5.18726563 43.24447266 5.18726563 43.24447266 6 44 C4.60802671 47.38256721 3.1974504 48.83688682 0.0625 50.6875 C-0.62714844 51.10386719 -1.31679688 51.52023438 -2.02734375 51.94921875 C-8.16955907 55.22101265 -16.19985962 54.81532735 -23 54 C-31.48697778 51.22474675 -37.42168726 44.43095376 -42 37 C-44.30484065 30.08547804 -44.55992398 19.01685918 -41.3125 12.3125 C-40.19921875 10.56640625 -40.19921875 10.56640625 -39 9 C-38.61457031 8.45214844 -38.22914063 7.90429688 -37.83203125 7.33984375 C-28.31848693 -5.19094116 -13.35453302 -6.59939751 0 0 Z " fill="#D1D1CC" transform="translate(389,203)"/>
<path d="M0 0 C1.60488281 0.00483398 1.60488281 0.00483398 3.2421875 0.00976562 C4.35335937 0.01814453 5.46453125 0.02652344 6.609375 0.03515625 C8.29933594 0.04192383 8.29933594 0.04192383 10.0234375 0.04882812 C12.80210606 0.06060214 15.58074727 0.07853725 18.359375 0.09765625 C18.359375 5.70765625 18.359375 11.31765625 18.359375 17.09765625 C10.769375 17.42765625 3.179375 17.75765625 -4.640625 18.09765625 C-4.640625 19.08765625 -4.640625 20.07765625 -4.640625 21.09765625 C-3.58875 21.11892578 -3.58875 21.11892578 -2.515625 21.140625 C5.39935361 21.53852474 10.08831026 23.28494968 15.9609375 28.52734375 C20.02214851 33.08769802 20.08843112 38.02046674 19.84375 43.93359375 C18.88811973 50.17601727 16.15122305 53.67149148 11.296875 57.53515625 C6.67082447 59.99582143 3.07515643 60.21909162 -2.15625 60.1953125 C-4.03183594 60.19047852 -4.03183594 60.19047852 -5.9453125 60.18554688 C-7.89824219 60.17297852 -7.89824219 60.17297852 -9.890625 60.16015625 C-11.86675781 60.15338867 -11.86675781 60.15338867 -13.8828125 60.14648438 C-17.13543604 60.13469951 -20.38803624 60.11676415 -23.640625 60.09765625 C-23.640625 54.48765625 -23.640625 48.87765625 -23.640625 43.09765625 C-14.730625 43.09765625 -5.820625 43.09765625 3.359375 43.09765625 C3.029375 41.77765625 2.699375 40.45765625 2.359375 39.09765625 C1.29009766 39.05898437 1.29009766 39.05898437 0.19921875 39.01953125 C-7.71864642 38.55064018 -12.96553371 37.28286576 -18.453125 31.22265625 C-22.15940042 25.92797708 -23.16656457 21.73351448 -22.23828125 15.40625 C-20.80833455 9.88273038 -18.00024649 5.60284394 -13.078125 2.66015625 C-8.4612504 0.56157689 -5.06512906 -0.02694218 0 0 Z " fill="#C2C2BD" transform="translate(194.640625,197.90234375)"/>
<path d="M0 0 C0 5.28 0 10.56 0 16 C-2.3203125 16.556875 -2.3203125 16.556875 -4.6875 17.125 C-10.00898517 18.73574657 -12.09025824 20.27166965 -15 25 C-15.66 27.31 -16.32 29.62 -17 32 C-11.39 32 -5.78 32 0 32 C0 36.95 0 41.9 0 47 C-5.61 47 -11.22 47 -17 47 C-17 60.86 -17 74.72 -17 89 C-22.28 89 -27.56 89 -33 89 C-33.06808015 81.2193118 -33.12299024 73.43878971 -33.15543652 65.6578846 C-33.17101793 62.04394489 -33.19211627 58.43022151 -33.22631836 54.81640625 C-33.25918345 51.32154116 -33.27690942 47.82688268 -33.28463173 44.33187485 C-33.29278089 42.36564055 -33.31615582 40.39948806 -33.33988953 38.43338013 C-33.34210547 26.49750522 -31.36776886 17.75345761 -23 9 C-16.12259117 2.58482027 -9.37114897 0 0 0 Z " fill="#BEBCB6" transform="translate(78,168)"/>
<path d="M0 0 C0 5.28 0 10.56 0 16 C-1.4025 16.4125 -2.805 16.825 -4.25 17.25 C-8.11752459 18.57150527 -10.62593547 19.53021337 -13 23 C-14.18317749 25.97337648 -15.09465779 28.92183649 -16 32 C-10.72 32 -5.44 32 0 32 C0.495 39.425 0.495 39.425 1 47 C-4.61 47 -10.22 47 -16 47 C-16 60.86 -16 74.72 -16 89 C-21.28 89 -26.56 89 -32 89 C-32.09075377 80.95851764 -32.16397463 72.91744054 -32.20724869 64.87558174 C-32.22802924 61.1404921 -32.25616923 57.4057742 -32.30175781 53.67089844 C-32.34556031 50.05930865 -32.36920859 46.448074 -32.37950897 42.83623886 C-32.38683928 41.46565036 -32.40115198 40.09507894 -32.42292023 38.72464371 C-32.60256084 26.93490804 -30.55931661 18.16753906 -22.9921875 8.9765625 C-16.69481112 2.7285773 -8.71184817 0 0 0 Z " fill="#CBC9C5" transform="translate(289,168)"/>
<path d="M0 0 C0 5.94 0 11.88 0 18 C5.28 18 10.56 18 16 18 C16 22.62 16 27.24 16 32 C10.72 32 5.44 32 0 32 C0.06051149 34.68973586 0.14771897 37.37428778 0.25 40.0625 C0.26417969 40.81466797 0.27835938 41.56683594 0.29296875 42.34179688 C0.5360696 47.95742641 1.80509977 51.35611156 5 56 C8.58665353 58.73718295 11.5556776 59.5185592 16 61 C16 65.95 16 70.9 16 76 C5.5733855 76 -0.3439588 73.05585441 -8 66 C-15.15501193 58.29460253 -16.45695738 49.22316871 -16.29296875 39.05859375 C-16.28872391 38.05031021 -16.28447906 37.04202667 -16.28010559 36.00318909 C-16.26344683 32.81434284 -16.22581877 29.626152 -16.1875 26.4375 C-16.17243661 24.26237898 -16.15875112 22.08724796 -16.14648438 19.91210938 C-16.11358548 14.60785307 -16.06351575 9.30397338 -16 4 C-14.08594633 3.32586789 -12.16863974 2.6609668 -10.25 2 C-9.18265625 1.62875 -8.1153125 1.2575 -7.015625 0.875 C-4 0 -4 0 0 0 Z " fill="#C8C6C1" transform="translate(236,182)"/>
<path d="M0 0 C0 5.28 0 10.56 0 16 C-1.7325 16.556875 -3.465 17.11375 -5.25 17.6875 C-10.89993794 19.74729766 -13.45942881 21.76649732 -16.06396484 27.2331543 C-17.17964892 30.53102795 -17.32210339 33.35291167 -17.4140625 36.83203125 C-17.45273438 38.12431641 -17.49140625 39.41660156 -17.53125 40.74804688 C-17.56270014 42.10285995 -17.59394761 43.45767775 -17.625 44.8125 C-17.6632175 46.18687272 -17.7022714 47.56122244 -17.7421875 48.93554688 C-17.83635162 52.29014376 -17.9192603 55.64505317 -18 59 C-22.95 59 -27.9 59 -33 59 C-33.09251177 54.48234211 -33.17192869 49.9680506 -33.21972656 45.45019531 C-33.23967724 43.91785466 -33.26684816 42.38558848 -33.30175781 40.85351562 C-33.58120266 28.26205958 -32.39727155 18.54842618 -23.41796875 9.046875 C-16.69654117 3.35700739 -8.79405827 0 0 0 Z " fill="#C2C0BB" transform="translate(112,198)"/>
<path d="M0 0 C3.81248738 1.31970717 5.66857107 2.63368381 8.375 5.625 C10.45494473 9.94488521 10.82730415 13.28943147 10 18 C7.63292134 22.91624028 5.13959507 25.18602527 0 27 C-5.23548855 27.5609452 -8.55601027 26.82799347 -13 24 C-15.94265179 20.75293595 -16.918002 18.08647349 -17.25 13.6875 C-16.87815858 8.20283907 -15.43107108 5.26466746 -11.3125 1.625 C-7.26864162 -0.35877958 -4.41283571 -0.71487939 0 0 Z " fill="#020202" transform="translate(143,215)"/>
<path d="M0 0 C3.94962019 2.0541365 6.39941943 4.13598554 8.03515625 8.2734375 C8.60786471 13.52326507 7.81687824 16.80281287 5.03515625 21.2734375 C1.6341861 25.20580923 -0.5343132 26.1561809 -5.77734375 26.5859375 C-10.16104572 26.52147129 -12.61052678 25.15971024 -15.96484375 22.2734375 C-19.12690123 18.58437044 -19.48868159 15.19453018 -19.31640625 10.48828125 C-18.59573547 5.94805536 -16.14282789 3.25509095 -12.71484375 0.3984375 C-8.36507982 -1.38101138 -4.38474785 -1.62139781 0 0 Z " fill="#020202" transform="translate(320.96484375,215.7265625)"/>
<path d="M0 0 C0.66 0 1.32 0 2 0 C2 4.95 2 9.9 2 15 C-6.415 15.495 -6.415 15.495 -15 16 C-15.33 26.23 -15.66 36.46 -16 47 C-16.33 47 -16.66 47 -17 47 C-17.07417023 42.49767666 -17.1286105 37.99570909 -17.16479492 33.49291992 C-17.17987936 31.96128139 -17.20034978 30.42968602 -17.22631836 28.89819336 C-17.26271847 26.69634346 -17.27972913 24.49506467 -17.29296875 22.29296875 C-17.30845261 21.60849167 -17.32393646 20.92401459 -17.33988953 20.21879578 C-17.34090493 17.34888026 -17.31843637 15.45440956 -15.64379883 13.06469727 C-13.23756053 11.50616389 -11.33614001 11.67375968 -8.5 11.75 C-7.5409375 11.76546875 -6.581875 11.7809375 -5.59375 11.796875 C-3 12 -3 12 0 13 C0 8.71 0 4.42 0 0 Z " fill="#B3B1AE" transform="translate(76,200)"/>
<path d="M0 0 C5.46341463 2.92682927 5.46341463 2.92682927 7 6 C-0.59 6 -8.18 6 -16 6 C-11.05105246 -0.18618442 -7.56026044 -0.96596173 0 0 Z " fill="#010101" transform="translate(379,215)"/>
<path d="M0 0 C0.33 0 0.66 0 1 0 C1 9.24 1 18.48 1 28 C4.96 28 8.92 28 13 28 C13 19.09 13 10.18 13 1 C13.66 0.67 14.32 0.34 15 0 C15 9.9 15 19.8 15 30 C10.05 30 5.1 30 0 30 C0 20.1 0 10.2 0 0 Z " fill="#D1D1CD" transform="translate(79,227)"/>
<path d="M0 0 C5.61 0 11.22 0 17 0 C17 4.62 17 9.24 17 14 C11.39 14 5.78 14 0 14 C0 18.62 0 23.24 0 28 C-0.33 28 -0.66 28 -1 28 C-1.33 23.38 -1.66 18.76 -2 14 C4.13882209 10.66368365 8.11550168 10.96260984 15 12 C15 8.37 15 4.74 15 1 C10.05 1 5.1 1 0 1 C0 0.67 0 0.34 0 0 Z " fill="#D6D5D0" transform="translate(235,200)"/>
<path d="M0 0 C0.33 0 0.66 0 1 0 C1 2.97 1 5.94 1 9 C-4.09031755 9.04936158 -9.18049643 9.08570105 -14.27099609 9.10986328 C-16.00344265 9.11993376 -17.73587216 9.13359089 -19.46826172 9.15087891 C-21.95544639 9.17508162 -24.44240675 9.18647239 -26.9296875 9.1953125 C-27.70682098 9.20563507 -28.48395447 9.21595764 -29.28463745 9.22659302 C-31.19125493 9.22699271 -33.09731036 9.1223214 -35 9 C-35.66 8.34 -36.32 7.68 -37 7 C-24.56838268 6.24868532 -12.4100432 5.74353145 0 7 C0 4.69 0 2.38 0 0 Z " fill="#DCDDD9" transform="translate(402,227)"/>
<path d="M0 0 C0.33 0 0.66 0 1 0 C1.33 6.93 1.66 13.86 2 21 C0.68 20.34 -0.64 19.68 -2 19 C-1.84660156 18.32582031 -1.69320312 17.65164062 -1.53515625 16.95703125 C-0.91516143 13.53122048 -0.6647426 10.16106553 -0.4375 6.6875 C-0.35371094 5.43324219 -0.26992187 4.17898437 -0.18359375 2.88671875 C-0.12300781 1.93410156 -0.06242188 0.98148438 0 0 Z " fill="#C0BEBA" transform="translate(235,214)"/>
<path d="M0 0 C-1.66751148 3.94139078 -4.22710649 6.7892812 -7 10 C-7.66 9.67 -8.32 9.34 -9 9 C-3.2 0 -3.2 0 0 0 Z " fill="#D3D2CE" transform="translate(298,206)"/>
<path d="M0 0 C0 0.66 0 1.32 0 2 C-0.66 2 -1.32 2 -2 2 C-2.33 2.99 -2.66 3.98 -3 5 C-4.95597184 6.39712274 -6.95436401 7.73779907 -9 9 C-8.875 6.75 -8.875 6.75 -8 4 C-2.91891892 0 -2.91891892 0 0 0 Z " fill="#C4C3BF" transform="translate(276,171)"/>
<path d="M0 0 C-3.41016497 2.86453858 -6.90694544 4.34703566 -11 6 C-11 5.01 -11 4.02 -11 3 C-7.33513904 0.08966924 -4.60625394 -0.32136655 0 0 Z " fill="#C8C9C4" transform="translate(132,202)"/>
<path d="M0 0 C2.92879371 0.62759865 5.36095629 1.58622659 8 3 C8 3.66 8 4.32 8 5 C8.66 5.33 9.32 5.66 10 6 C5.16743695 5.58578031 3.17320782 3.53586014 0 0 Z " fill="#D9DAD6" transform="translate(355,249)"/>
<path d="M0 0 C1.65 1.65 3.3 3.3 5 5 C4.67 5.99 4.34 6.98 4 8 C2 6.25 2 6.25 0 4 C0 2.68 0 1.36 0 0 Z " fill="#D5D4D0" transform="translate(292,243)"/>
<path d="M0 0 C6.75 0.875 6.75 0.875 9 2 C9 2.66 9 3.32 9 4 C5.17902761 3.46930939 2.93828597 2.50298434 0 0 Z " fill="#C9CAC6" transform="translate(198,221)"/>
<path d="M0 0 C0.4125 0.45375 0.825 0.9075 1.25 1.375 C3.06408095 3.05950374 4.75285627 3.99265971 7 5 C2.25 6.125 2.25 6.125 0 5 C0 3.35 0 1.7 0 0 Z " fill="#CACAC5" transform="translate(187,216)"/>
<path d="M0 0 C2.88437779 1.29299694 4.87219421 2.65941363 7 5 C6.67 5.99 6.34 6.98 6 8 C3.33264727 5.51047079 1.44253657 3.36591866 0 0 Z " fill="#DBDBD7" transform="translate(391,206)"/>
<path d="M0 0 C0.66 0 1.32 0 2 0 C0.92598892 2.91517292 0.22189824 4.77810176 -2 7 C-2.99 6.67 -3.98 6.34 -5 6 C-3.38405168 3.95880212 -1.7143618 1.95927063 0 0 Z " fill="#CACBC6" transform="translate(152,234)"/>
<path d="M0 0 C2.03833424 1.2739589 4.03852126 2.61061923 6 4 C6 4.66 6 5.32 6 6 C3.625 5.6875 3.625 5.6875 1 5 C0.34 4.01 -0.32 3.02 -1 2 C-0.67 1.34 -0.34 0.68 0 0 Z " fill="#D5D5D1" transform="translate(299,249)"/>
<path d="M0 0 C-0.33 0.66 -0.66 1.32 -1 2 C-3.32156597 2.40729228 -5.6568787 2.74438677 -8 3 C-7.67 2.01 -7.34 1.02 -7 0 C-3.86650268 -1.04449911 -3.01031744 -0.93423645 0 0 Z " fill="#D7D7D3" transform="translate(368,202)"/>
<path d="M0 0 C1.98 0 3.96 0 6 0 C6 1.65 6 3.3 6 5 C5.34 4.34 4.68 3.68 4 3 C1.42938689 2.35232207 1.42938689 2.35232207 -1 2 C-0.67 1.34 -0.34 0.68 0 0 Z " fill="#C2C2BF" transform="translate(283,168)"/>
</svg>
